<svg viewBox="0 0 2048 2732" version="1.1" xmlns="http://www.w3.org/2000/svg" style="fill-rule:evenodd;clip-rule:evenodd;stroke-linejoin:round;stroke-miterlimit:2;">
    <g transform="matrix(1,0,0,1,1.25568,-1.87808)">
        <path d="M591.411,764.165l139.025,-180.547l114.278,-33.641l77.186,-247.121l164.105,40.02l2.836,169.958l122.286,53.984l152.76,437.214l-28.439,111.811l51.28,85.852l-42.264,538.207l-141.701,99.607l-53.383,371.854l-154.779,9.348l-350.563,-585.037l101.769,-134.828l-374.943,-496.284l53.762,-112.188l129.093,-55.232l37.692,-72.977Z" style="fill:#fff;" />
    </g>
    <path d="M921.9,302.856l102.1,92.066l0,87.519l-71.275,90.051l118.484,40.48l159.415,375.485l-159.415,129.683l0,46.277l82.981,-0l76.434,73.666l-53.427,375.027l-224.472,117.213l-0,67.206l93.737,65.556l-22.462,357.626l130.19,-6.456l48.722,-374.117l142.142,-100.862l41.674,-537.45l-22.645,-197.066l-153.389,-436.639l-125.253,-224.697l-163.541,-40.568Z" style="fill:#d6d6d6;" />
    <path d="M370.864,1006.32l370.801,493.177l99.318,-84.069l37.813,-64.541l-137.131,-24.35l-16.471,-83.873l-354.33,-236.344Z" style="fill:#f2f2f2;" />
    <path d="M1074.66,1461.03l-195.867,70.17l-75.783,89.923l75.783,14.292l43.104,-52.306l46.777,-0l37.07,-51.909l30.002,14.237l107.247,-98.945l-68.333,14.538Z" style="fill:#d4d4d4;" />
    <path d="M749.256,638.645l-103.302,175.487l145.929,-24.531l146.715,24.531l85.402,-17.06l0,-26.499l-59.471,-0l-98.752,-13.712l-73.894,-8.343l-42.627,-109.873Z" style="fill:#f2f2f2;" />
    <path d="M1090.33,583.453l-66.328,-37.08l43.547,-58.99l75.449,58.99l47.966,92.272l19.947,112.307l-39.49,-55.219l-17.105,-57.088l-11.318,-41.106l-52.668,-14.086Z" style="fill:#f2f2f2;" />
    <path d="M696.185,1273.85l-58.391,-37.991l15.411,60.257l37.303,85.284l109.03,-0l-87.498,-48.6l-15.855,-58.95Z" style="fill:#d6d6d6;" />
    <path d="M458.663,1124.08l75.966,99.683l0,-41.51l63.386,85.87l-56.083,-117.066l-36.723,10.542l-58.382,-80.537l11.836,43.018Z" style="fill:#fff;" />
    <path d="M749.124,638.645l40.088,103.806l234.788,29.159l0,13.476l-215.228,-13.476l-59.648,-16.588l-16.974,-22.97l16.974,-93.407Z" style="fill:#d6d6d6;" />
    <path d="M1076.03,524.291c-3.249,2.724 -13.507,26.278 -13.507,26.278l43.258,18.548l11.676,-18.548c-0,0 -38.178,-29.002 -41.427,-26.278Z" style="fill:#fff;" />
    <path d="M1230.23,986.939l-158.87,130.601l-0,46.647l83.369,-0l8.959,-32.625l28.958,-4.726l33.325,-41.941l33.687,-22.302l53.767,-40.73l18.698,-13.112l-10.836,-13.603l-29.825,13.603l-31.804,13.112l-29.428,-34.924Z" style="fill:#f2f2f2;" />
    <g transform="matrix(1,0,0,1,-6.64202,5.86593)">
        <path d="M1106.71,1108.15l117.687,-96.264l5.235,6.417l-16.647,18.558l-7.507,27.424l-78.576,49.731l-20.192,-5.866Z" style="fill:#fff;" />
    </g>
    <path d="M802.711,1621.35l75.364,-90.294l197.267,-70.723l66.75,-13.367l-125.614,53.032l-98.732,45.2l-115.035,76.152Z" style="fill:#f2f2f2;" />
    <path d="M952.723,1730.89l0.828,66.973l64.967,-37.121l95.114,-53.697l73.918,-27.033l79.632,12.335l-0,-16.988l-70.148,-28.475l-19.768,-33.825l-224.543,117.831Z" style="fill:#f2f2f2;" />
    <path d="M952.723,1730.24l42.949,-1.139l22.543,-20.072l27.884,-9.192l25.262,-10.133l23.874,-5.154l-0,-7.912l-8.707,0l37.169,-15.862l22.755,-8.395l27.854,-21.211l3.313,-18.116l-224.896,117.186Z" style="fill:#d4d4d4;" />
    <g transform="matrix(1,0,0,1,1.21043,-3.64555)">
        <path d="M1216.4,1666.77l-2.868,4.879l-52.005,5.753l-65.244,28.056l22.032,-19.88l49.322,-21.692l12.364,-10.26l-0,-15.153l11.42,19.015l24.979,9.282Z" style="fill:#fff;" />
    </g>
</svg>