<?xml version="1.0" encoding="UTF-8" standalone="no"?>
<svg xmlns="http://www.w3.org/2000/svg" version="1.1" width="1200" height="800">
    <style>
        @keyframes xs {
            0% {
                transform: translate(-37.5%);
            }
            100% {
                transform: translate(-12.5%);
            }
        }

        
    .xs {
        animation: xs 3s cubic-bezier(0.445, 0.05, 0.55, 0.95) 0s infinite;
        animation-direction: alternate;
    }

    
        @keyframes sin {
            0% {
                transform: translate(-12.5%);
            }
            100% {
                transform: translate(-50%);
            }
        }

        
    .sin {
        animation: sin 3s cubic-bezier(0.445, 0.05, 0.55, 0.95) 0s infinite;
        animation-direction: alternate;
    }

    
        @keyframes cos {
            0% {
                transform: translate(-37.5%);
            }
            100% {
                transform: translate(-12.5%);
            }
        }

        
    .cos {
        animation: cos 3s cubic-bezier(0.445, 0.05, 0.55, 0.95) 0s infinite;
        animation-direction: alternate;
    }

    
    @keyframes icebergAnimation {
        0% {
            transform: translateX(18.75%) skew(-1deg) rotate(2deg);
        }
        100% {
            transform: translateX(-18.75%) skew(1deg) rotate(-2deg);
        }
    }

    
    .iceberg > * {
        animation: icebergAnimation 3s cubic-bezier(0.445, 0.05, 0.55, 0.95) 0s infinite;
        animation-direction: alternate;
    }

    </style>
    <rect width="1200" height="800" fill="#3e92cc"></rect>
    <g id="wavePaths">
        <g>
            <path d="M 0 555.8851111174465L 8.999999999999968 558.356117320705L 17.999999999999936 560.9577391642306L 26.999999999999904 563.6639821025444L 35.99999999999987 566.447806250772L 44.999999999999844 569.281396558234L 53.99999999999981 572.1364407272388L 62.99999999999978 574.9844121002018L 71.99999999999974 577.7968546885784L 80.99999999999972 580.5456674956956L 89.99999999999969 583.2033852926215L 98.99999999999964 585.7434530416538L 107.99999999999962 588.1404912254789L 116.99999999999957 590.3705494309194L 125.99999999999956 592.4113456535459L 134.99999999999952 594.2424889320996L 143.9999999999995 595.8456830882365L 152.99999999999946 597.2049095358941L 161.99999999999943 598.3065873337077L 170.9999999999994 599.1397088812881L 179.99999999999937 599.6959499035252L 188.99999999999932 599.9697526239935L 197.9999999999993 599.9583812964173L 206.99999999999926 599.6619495393429L 215.99999999999923 599.0834192008997L 224.9999999999992 598.2285707649926L 233.99999999999915 597.1059455946181L 242.99999999999912 595.7267605893877L 251.99999999999912 594.104796109976L 260.9999999999991 592.256258289311L 269.99999999999903 590.1996171062514L 278.999999999999 587.955421839663L 287.999999999999 585.5460957468176L 296.999999999999 582.9957120176174L 305.9999999999989 580.3297532432397L 314.99999999999886 577.5748568025094L 323.99999999999886 574.7585487100145L 332.9999999999988 571.9089685852674L 341.9999999999988 569.0545884909291L 350.99999999999875 566.2239284493692L 359.99999999999875 563.4452714800311L 368.9999999999987 560.7463810048507L 377.99999999999864 558.1542234453216L 386.99999999999864 555.694698782925L 395.9999999999986 553.392381775077L 404.9999999999986 551.2702764122748L 413.9999999999985 549.3495860698291L 422.99999999999847 547.649501650746L 431.99999999999847 546.1870098365673L 440.99999999999847 544.976723362065L 449.9999999999984 544.0307350096248L 458.9999999999984 543.3584967821621L 467.9999999999983 542.9667254618331L 476.99999999999835 542.8593354981685L 485.99999999999824 543.0373998961867L 494.99999999999824 543.4991394952829L 503.99999999999824 544.2399407460136L 512.9999999999982 545.2524018071583L 521.9999999999982 546.5264065024686L 530.9999999999981 548.0492253981594L 539.9999999999981 549.8056429912017L 548.9999999999981 551.7781097376003L 557.9999999999981 553.946917401636L 566.9999999999981 556.2903959740426L 575.9999999999981 558.785130191575L 584.9999999999981 561.4061934945818L 593.9999999999982 564.1273970849471L 602.9999999999982 566.9215515959066L 611.9999999999982 569.7607387592114L 620.9999999999982 572.6165903552362L 629.9999999999982 575.4605716588528L 638.9999999999982 578.2642665489703L 647.9999999999982 580.9996614330254L 656.9999999999982 583.6394251495375L 665.9999999999982 586.1571820520413L 674.9999999999982 588.5277755458269L 683.9999999999982 590.7275194443182L 692.9999999999982 592.7344346336201L 701.9999999999982 594.5284686805594L 710.9999999999982 596.0916961899676L 719.9999999999983 597.408497909305L 728.9999999999983 598.4657167910689L 737.9999999999984 599.2527894536626L 746.9999999999983 599.7618517272133L 755.9999999999983 599.9878172297573L 764.9999999999983 599.9284281886873L 773.9999999999982 599.5842779996705L 782.9999999999983 598.9588052976343L 791.9999999999983 598.0582595990638L 800.9999999999983 596.8916388588984L 809.9999999999984 595.4705995659401L 818.9999999999983 593.8093402750712L 827.9999999999983 591.9244597399868L 836.9999999999983 589.8347910639345L 845.9999999999983 587.5612135255728L 854.9999999999983 585.1264439601205L 863.9999999999984 582.5548097802476L 872.9999999999984 579.8720059046102L 881.9999999999983 577.1048380227165L 890.9999999999983 574.2809547613384L 899.9999999999982 571.428571428572L 908.9999999999984 568.5761880958055L 917.9999999999984 565.7523048344274L 926.9999999999982 562.9851369525336L 935.9999999999982 560.3023330768962L 944.9999999999983 557.7306988970233L 953.9999999999984 555.295929331571L 962.9999999999983 553.0223517932092L 971.9999999999983 550.9326831171569L 980.9999999999983 549.0478025820722L 989.9999999999983 547.3865432912032L 998.9999999999983 545.965503998245L 1007.9999999999983 544.7988832580795L 1016.9999999999983 543.8983375595088L 1025.9999999999984 543.2728648574727L 1034.9999999999984 542.9287146684557L 1043.9999999999984 542.8693256273856L 1052.9999999999984 543.0952911299295L 1061.9999999999984 543.60435340348L 1070.9999999999984 544.3914260660738L 1079.9999999999984 545.4486449478375L 1088.9999999999984 546.7654466671748L 1097.9999999999984 548.3286741765829L 1106.9999999999984 550.122708223522L 1115.9999999999984 552.1296234128238L 1124.9999999999984 554.3293673113151L 1133.9999999999984 556.6999608051005L 1142.9999999999984 559.2177177076044L 1151.9999999999984 561.8574814241165L 1160.9999999999984 564.5928763081715L 1169.9999999999984 567.3965711982889L 1178.9999999999984 570.2405525019054L 1187.9999999999984 573.0964040979304L 1196.9999999999984 575.9355912612351L 1205.9999999999984 578.7297457721947L 1214.9999999999984 581.4509493625601L 1223.9999999999984 584.0720126655668L 1232.9999999999984 586.5667468830994L 1241.9999999999984 588.9102254555058L 1250.9999999999984 591.0790331195417L 1259.9999999999984 593.0514998659405L 1268.9999999999986 594.8079174589828L 1277.9999999999986 596.3307363546737L 1286.9999999999986 597.6047410499842L 1295.9999999999984 598.6172021111289L 1304.9999999999984 599.3580033618598L 1313.9999999999984 599.8197429609561L 1322.9999999999984 599.9978073589742L 1331.9999999999984 599.8904173953098L 1340.9999999999982 599.498646074981L 1349.9999999999982 598.8264078475183L 1358.9999999999982 597.8804194950783L 1367.9999999999982 596.670133020576L 1376.9999999999982 595.2076412063975L 1385.999999999998 593.5075567873142L 1394.999999999998 591.5868664448687L 1403.999999999998 589.4647610820667L 1412.999999999998 587.1624440742187L 1421.999999999998 584.7029194118222L 1430.999999999998 582.1107618522931L 1439.999999999998 579.4118713771128L 1448.999999999998 576.6332144077749L 1457.9999999999977 573.8025543662148L 1466.999999999998 570.9481742718764L 1475.999999999998 568.0985941471295L 1484.9999999999977 565.2822860546345L 1493.9999999999975 562.5273896139042L 1502.9999999999977 559.8614308395264L 1511.9999999999977 557.3110471103261L 1520.9999999999975 554.9017210174806L 1529.9999999999973 552.6575257508923L 1538.9999999999975 550.6008845678326L 1547.9999999999977 548.7523467471675L 1556.9999999999975 547.1303822677557L 1565.9999999999975 545.7511972625254L 1574.9999999999975 544.6285720921506L 1583.9999999999975 543.7737236562435L 1592.9999999999975 543.1951933178001L 1601.9999999999973 542.8987615607256L 1610.9999999999973 542.8873902331493L 1619.9999999999975 543.1611929536175L 1628.9999999999973 543.7174339758544L 1637.999999999997 544.5505555234348L 1646.9999999999973 545.6522333212484L 1655.9999999999973 547.0114597689059L 1664.999999999997 548.6146539250426L 1673.9999999999968 550.445797203596L 1682.999999999997 552.4865934262226L 1691.999999999997 554.7166516316631L 1700.9999999999968 557.1136898154882L 1709.9999999999968 559.6537575645203L 1718.9999999999968 562.3114753614461L 1727.999999999997 565.0602881685634L 1736.999999999997 567.8727307569401L 1745.9999999999968 570.7207021299031L 1754.9999999999968 573.5757462989079L 1763.999999999997 576.4093366063698L 1772.9999999999968 579.1931607545974L 1781.9999999999966 581.8994036929112L 1790.9999999999966 584.5010255364367L 1799.9999999999968 586.9720317396955" fill="none" stroke-width="0.5" stroke="#16324f" class="sin" opacity="0.75"></path>
            <path d="M 0 800L 0 555.8851111174465L 8.999999999999968 558.356117320705L 17.999999999999936 560.9577391642306L 26.999999999999904 563.6639821025444L 35.99999999999987 566.447806250772L 44.999999999999844 569.281396558234L 53.99999999999981 572.1364407272388L 62.99999999999978 574.9844121002018L 71.99999999999974 577.7968546885784L 80.99999999999972 580.5456674956956L 89.99999999999969 583.2033852926215L 98.99999999999964 585.7434530416538L 107.99999999999962 588.1404912254789L 116.99999999999957 590.3705494309194L 125.99999999999956 592.4113456535459L 134.99999999999952 594.2424889320996L 143.9999999999995 595.8456830882365L 152.99999999999946 597.2049095358941L 161.99999999999943 598.3065873337077L 170.9999999999994 599.1397088812881L 179.99999999999937 599.6959499035252L 188.99999999999932 599.9697526239935L 197.9999999999993 599.9583812964173L 206.99999999999926 599.6619495393429L 215.99999999999923 599.0834192008997L 224.9999999999992 598.2285707649926L 233.99999999999915 597.1059455946181L 242.99999999999912 595.7267605893877L 251.99999999999912 594.104796109976L 260.9999999999991 592.256258289311L 269.99999999999903 590.1996171062514L 278.999999999999 587.955421839663L 287.999999999999 585.5460957468176L 296.999999999999 582.9957120176174L 305.9999999999989 580.3297532432397L 314.99999999999886 577.5748568025094L 323.99999999999886 574.7585487100145L 332.9999999999988 571.9089685852674L 341.9999999999988 569.0545884909291L 350.99999999999875 566.2239284493692L 359.99999999999875 563.4452714800311L 368.9999999999987 560.7463810048507L 377.99999999999864 558.1542234453216L 386.99999999999864 555.694698782925L 395.9999999999986 553.392381775077L 404.9999999999986 551.2702764122748L 413.9999999999985 549.3495860698291L 422.99999999999847 547.649501650746L 431.99999999999847 546.1870098365673L 440.99999999999847 544.976723362065L 449.9999999999984 544.0307350096248L 458.9999999999984 543.3584967821621L 467.9999999999983 542.9667254618331L 476.99999999999835 542.8593354981685L 485.99999999999824 543.0373998961867L 494.99999999999824 543.4991394952829L 503.99999999999824 544.2399407460136L 512.9999999999982 545.2524018071583L 521.9999999999982 546.5264065024686L 530.9999999999981 548.0492253981594L 539.9999999999981 549.8056429912017L 548.9999999999981 551.7781097376003L 557.9999999999981 553.946917401636L 566.9999999999981 556.2903959740426L 575.9999999999981 558.785130191575L 584.9999999999981 561.4061934945818L 593.9999999999982 564.1273970849471L 602.9999999999982 566.9215515959066L 611.9999999999982 569.7607387592114L 620.9999999999982 572.6165903552362L 629.9999999999982 575.4605716588528L 638.9999999999982 578.2642665489703L 647.9999999999982 580.9996614330254L 656.9999999999982 583.6394251495375L 665.9999999999982 586.1571820520413L 674.9999999999982 588.5277755458269L 683.9999999999982 590.7275194443182L 692.9999999999982 592.7344346336201L 701.9999999999982 594.5284686805594L 710.9999999999982 596.0916961899676L 719.9999999999983 597.408497909305L 728.9999999999983 598.4657167910689L 737.9999999999984 599.2527894536626L 746.9999999999983 599.7618517272133L 755.9999999999983 599.9878172297573L 764.9999999999983 599.9284281886873L 773.9999999999982 599.5842779996705L 782.9999999999983 598.9588052976343L 791.9999999999983 598.0582595990638L 800.9999999999983 596.8916388588984L 809.9999999999984 595.4705995659401L 818.9999999999983 593.8093402750712L 827.9999999999983 591.9244597399868L 836.9999999999983 589.8347910639345L 845.9999999999983 587.5612135255728L 854.9999999999983 585.1264439601205L 863.9999999999984 582.5548097802476L 872.9999999999984 579.8720059046102L 881.9999999999983 577.1048380227165L 890.9999999999983 574.2809547613384L 899.9999999999982 571.428571428572L 908.9999999999984 568.5761880958055L 917.9999999999984 565.7523048344274L 926.9999999999982 562.9851369525336L 935.9999999999982 560.3023330768962L 944.9999999999983 557.7306988970233L 953.9999999999984 555.295929331571L 962.9999999999983 553.0223517932092L 971.9999999999983 550.9326831171569L 980.9999999999983 549.0478025820722L 989.9999999999983 547.3865432912032L 998.9999999999983 545.965503998245L 1007.9999999999983 544.7988832580795L 1016.9999999999983 543.8983375595088L 1025.9999999999984 543.2728648574727L 1034.9999999999984 542.9287146684557L 1043.9999999999984 542.8693256273856L 1052.9999999999984 543.0952911299295L 1061.9999999999984 543.60435340348L 1070.9999999999984 544.3914260660738L 1079.9999999999984 545.4486449478375L 1088.9999999999984 546.7654466671748L 1097.9999999999984 548.3286741765829L 1106.9999999999984 550.122708223522L 1115.9999999999984 552.1296234128238L 1124.9999999999984 554.3293673113151L 1133.9999999999984 556.6999608051005L 1142.9999999999984 559.2177177076044L 1151.9999999999984 561.8574814241165L 1160.9999999999984 564.5928763081715L 1169.9999999999984 567.3965711982889L 1178.9999999999984 570.2405525019054L 1187.9999999999984 573.0964040979304L 1196.9999999999984 575.9355912612351L 1205.9999999999984 578.7297457721947L 1214.9999999999984 581.4509493625601L 1223.9999999999984 584.0720126655668L 1232.9999999999984 586.5667468830994L 1241.9999999999984 588.9102254555058L 1250.9999999999984 591.0790331195417L 1259.9999999999984 593.0514998659405L 1268.9999999999986 594.8079174589828L 1277.9999999999986 596.3307363546737L 1286.9999999999986 597.6047410499842L 1295.9999999999984 598.6172021111289L 1304.9999999999984 599.3580033618598L 1313.9999999999984 599.8197429609561L 1322.9999999999984 599.9978073589742L 1331.9999999999984 599.8904173953098L 1340.9999999999982 599.498646074981L 1349.9999999999982 598.8264078475183L 1358.9999999999982 597.8804194950783L 1367.9999999999982 596.670133020576L 1376.9999999999982 595.2076412063975L 1385.999999999998 593.5075567873142L 1394.999999999998 591.5868664448687L 1403.999999999998 589.4647610820667L 1412.999999999998 587.1624440742187L 1421.999999999998 584.7029194118222L 1430.999999999998 582.1107618522931L 1439.999999999998 579.4118713771128L 1448.999999999998 576.6332144077749L 1457.9999999999977 573.8025543662148L 1466.999999999998 570.9481742718764L 1475.999999999998 568.0985941471295L 1484.9999999999977 565.2822860546345L 1493.9999999999975 562.5273896139042L 1502.9999999999977 559.8614308395264L 1511.9999999999977 557.3110471103261L 1520.9999999999975 554.9017210174806L 1529.9999999999973 552.6575257508923L 1538.9999999999975 550.6008845678326L 1547.9999999999977 548.7523467471675L 1556.9999999999975 547.1303822677557L 1565.9999999999975 545.7511972625254L 1574.9999999999975 544.6285720921506L 1583.9999999999975 543.7737236562435L 1592.9999999999975 543.1951933178001L 1601.9999999999973 542.8987615607256L 1610.9999999999973 542.8873902331493L 1619.9999999999975 543.1611929536175L 1628.9999999999973 543.7174339758544L 1637.999999999997 544.5505555234348L 1646.9999999999973 545.6522333212484L 1655.9999999999973 547.0114597689059L 1664.999999999997 548.6146539250426L 1673.9999999999968 550.445797203596L 1682.999999999997 552.4865934262226L 1691.999999999997 554.7166516316631L 1700.9999999999968 557.1136898154882L 1709.9999999999968 559.6537575645203L 1718.9999999999968 562.3114753614461L 1727.999999999997 565.0602881685634L 1736.999999999997 567.8727307569401L 1745.9999999999968 570.7207021299031L 1754.9999999999968 573.5757462989079L 1763.999999999997 576.4093366063698L 1772.9999999999968 579.1931607545974L 1781.9999999999966 581.8994036929112L 1790.9999999999966 584.5010255364367L 1799.9999999999968 586.9720317396955L 1800 800 Z" fill="#16324f" opacity="0.75" stroke="none" class="sin"></path>
        </g>
        <svg viewBox="0 0 2048 2732" style="fill-rule:evenodd;clip-rule:evenodd;stroke-linejoin:round;stroke-miterlimit:2;" class="iceberg" x="0" y="440" height="400">
            <g transform="matrix(1,0,0,1,1.25568,-1.87808)">
                <path d="M591.411,764.165l139.025,-180.547l114.278,-33.641l77.186,-247.121l164.105,40.02l2.836,169.958l122.286,53.984l152.76,437.214l-28.439,111.811l51.28,85.852l-42.264,538.207l-141.701,99.607l-53.383,371.854l-154.779,9.348l-350.563,-585.037l101.769,-134.828l-374.943,-496.284l53.762,-112.188l129.093,-55.232l37.692,-72.977Z" style="fill:#fff;"></path>
            </g>
            <path d="M921.9,302.856l102.1,92.066l0,87.519l-71.275,90.051l118.484,40.48l159.415,375.485l-159.415,129.683l0,46.277l82.981,-0l76.434,73.666l-53.427,375.027l-224.472,117.213l-0,67.206l93.737,65.556l-22.462,357.626l130.19,-6.456l48.722,-374.117l142.142,-100.862l41.674,-537.45l-22.645,-197.066l-153.389,-436.639l-125.253,-224.697l-163.541,-40.568Z" style="fill:#d6d6d6;"></path>
            <path d="M370.864,1006.32l370.801,493.177l99.318,-84.069l37.813,-64.541l-137.131,-24.35l-16.471,-83.873l-354.33,-236.344Z" style="fill:#f2f2f2;"></path>
            <path d="M1074.66,1461.03l-195.867,70.17l-75.783,89.923l75.783,14.292l43.104,-52.306l46.777,-0l37.07,-51.909l30.002,14.237l107.247,-98.945l-68.333,14.538Z" style="fill:#d4d4d4;"></path>
            <path d="M749.256,638.645l-103.302,175.487l145.929,-24.531l146.715,24.531l85.402,-17.06l0,-26.499l-59.471,-0l-98.752,-13.712l-73.894,-8.343l-42.627,-109.873Z" style="fill:#f2f2f2;"></path>
            <path d="M1090.33,583.453l-66.328,-37.08l43.547,-58.99l75.449,58.99l47.966,92.272l19.947,112.307l-39.49,-55.219l-17.105,-57.088l-11.318,-41.106l-52.668,-14.086Z" style="fill:#f2f2f2;"></path>
            <path d="M696.185,1273.85l-58.391,-37.991l15.411,60.257l37.303,85.284l109.03,-0l-87.498,-48.6l-15.855,-58.95Z" style="fill:#d6d6d6;"></path>
            <path d="M458.663,1124.08l75.966,99.683l0,-41.51l63.386,85.87l-56.083,-117.066l-36.723,10.542l-58.382,-80.537l11.836,43.018Z" style="fill:#fff;"></path>
            <path d="M749.124,638.645l40.088,103.806l234.788,29.159l0,13.476l-215.228,-13.476l-59.648,-16.588l-16.974,-22.97l16.974,-93.407Z" style="fill:#d6d6d6;"></path>
            <path d="M1076.03,524.291c-3.249,2.724 -13.507,26.278 -13.507,26.278l43.258,18.548l11.676,-18.548c-0,0 -38.178,-29.002 -41.427,-26.278Z" style="fill:#fff;"></path>
            <path d="M1230.23,986.939l-158.87,130.601l-0,46.647l83.369,-0l8.959,-32.625l28.958,-4.726l33.325,-41.941l33.687,-22.302l53.767,-40.73l18.698,-13.112l-10.836,-13.603l-29.825,13.603l-31.804,13.112l-29.428,-34.924Z" style="fill:#f2f2f2;"></path>
            <g transform="matrix(1,0,0,1,-6.64202,5.86593)">
                <path d="M1106.71,1108.15l117.687,-96.264l5.235,6.417l-16.647,18.558l-7.507,27.424l-78.576,49.731l-20.192,-5.866Z" style="fill:#fff;"></path>
            </g>
            <path d="M802.711,1621.35l75.364,-90.294l197.267,-70.723l66.75,-13.367l-125.614,53.032l-98.732,45.2l-115.035,76.152Z" style="fill:#f2f2f2;"></path>
            <path d="M952.723,1730.89l0.828,66.973l64.967,-37.121l95.114,-53.697l73.918,-27.033l79.632,12.335l-0,-16.988l-70.148,-28.475l-19.768,-33.825l-224.543,117.831Z" style="fill:#f2f2f2;"></path>
            <path d="M952.723,1730.24l42.949,-1.139l22.543,-20.072l27.884,-9.192l25.262,-10.133l23.874,-5.154l-0,-7.912l-8.707,0l37.169,-15.862l22.755,-8.395l27.854,-21.211l3.313,-18.116l-224.896,117.186Z" style="fill:#d4d4d4;"></path>
            <g transform="matrix(1,0,0,1,1.21043,-3.64555)">
                <path d="M1216.4,1666.77l-2.868,4.879l-52.005,5.753l-65.244,28.056l22.032,-19.88l49.322,-21.692l12.364,-10.26l-0,-15.153l11.42,19.015l24.979,9.282Z" style="fill:#fff;"></path>
            </g>
        </svg>
        <g>
            <path d="M 0 595.4020436878986L 8.999999999999968 596.8340329321533L 17.999999999999936 598.0121792029929L 26.999999999999904 598.9247108523231L 35.99999999999987 599.5625101655465L 44.999999999999844 599.9192044627537L 53.99999999999981 599.9912297724345L 62.99999999999978 599.777866441503L 71.99999999999974 599.2812463258333L 80.99999999999972 598.5063314894604L 89.99999999999969 597.4608646252766L 98.99999999999964 596.1552916926032L 107.99999999999962 594.6026575446189L 116.99999999999957 592.8184755884972L 125.99999999999956 590.820572780572L 134.99999999999952 588.6289115052808L 143.9999999999995 586.2653901176196L 152.99999999999946 583.7536241420179L 161.99999999999943 581.118710313824L 170.9999999999994 578.3869758210228L 179.99999999999937 575.5857152516749L 188.99999999999932 572.7429178754155L 197.9999999999993 569.8869879839245L 206.99999999999926 567.0464610846326L 215.99999999999923 564.2497187833643L 224.9999999999992 561.5247052047139L 233.99999999999915 558.898647783589L 242.99999999999912 556.3977852176829L 251.99999999999912 554.0471052990787L 260.9999999999991 551.8700952444915L 269.99999999999903 549.8885070187629L 278.999999999999 548.1221399964185L 287.999999999999 546.5886431328623L 296.999999999999 545.3033386218481L 305.9999999999989 544.279068801185L 314.99999999999886 543.5260678363422L 323.99999999999886 543.0518594640516L 332.9999999999988 542.8611818176167L 341.9999999999988 542.9559400850509L 350.99999999999875 543.335187473069L 359.99999999999875 543.9951346671322L 368.9999999999987 544.9291876930274L 377.99999999999864 546.1280138016764L 386.99999999999864 547.5796347188809L 395.9999999999986 549.2695463282784L 404.9999999999986 551.180863591678L 413.9999999999985 553.2944892587815L 422.99999999999847 555.589304680595L 431.99999999999847 558.0423808199888L 440.99999999999847 560.6292073510573L 449.9999999999984 563.323937558193L 458.9999999999984 566.0996465879259L 467.9999999999983 568.9286004731582L 476.99999999999835 571.7825332417964L 485.99999999999824 574.6329293410009L 494.99999999999824 577.4513085551646L 503.99999999999824 580.2095105708114L 512.9999999999982 582.8799763451416L 521.9999999999982 585.4360234668766L 530.9999999999981 587.8521127580929L 539.9999999999981 590.1041034532457L 548.9999999999981 592.1694944057178L 557.9999999999981 594.0276489118402L 566.9999999999981 595.6600009060113L 575.9999999999981 597.0502404666896L 584.9999999999981 598.1844767797369L 593.9999999999982 599.0513769308416L 602.9999999999982 599.6422791402532L 611.9999999999982 599.9512793084215L 620.9999999999982 599.975290007808L 629.9999999999982 599.7140713314413L 638.9999999999982 599.1702332899885L 647.9999999999982 598.3492097333904L 656.9999999999982 597.2592040576307L 665.9999999999982 595.911107239113L 674.9999999999982 594.318389015627L 683.9999999999982 592.4969633011789L 692.9999999999982 590.4650291794239L 701.9999999999982 588.2428890644389L 710.9999999999982 585.8527458457106L 719.9999999999983 583.3184810442046L 728.9999999999983 580.6654161961006L 737.9999999999984 577.9200598483744L 746.9999999999983 575.1098426941584L 755.9999999999983 572.2628434943231L 764.9999999999983 569.4075085237805L 773.9999999999982 566.5723673457079L 782.9999999999983 563.7857477535838L 791.9999999999983 561.0754927292385L 800.9999999999983 558.4686822449839L 809.9999999999984 555.9913626894821L 818.9999999999983 553.6682866208386L 827.9999999999983 551.5226654472243L 836.9999999999983 549.5759375061579L 845.9999999999983 547.8475538597238L 854.9999999999983 546.3547839459897L 863.9999999999984 545.1125430284892L 872.9999999999984 544.13324316784L 881.9999999999983 543.4266692045361L 890.9999999999983 542.9998809920564L 899.9999999999982 542.8571428571429L 908.9999999999984 542.9998809920563L 917.9999999999984 543.4266692045358L 926.9999999999982 544.1332431678397L 935.9999999999982 545.1125430284887L 944.9999999999983 546.3547839459891L 953.9999999999984 547.8475538597231L 962.9999999999983 549.5759375061572L 971.9999999999983 551.5226654472235L 980.9999999999983 553.6682866208378L 989.9999999999983 555.9913626894812L 998.9999999999983 558.468682244983L 1007.9999999999983 561.0754927292375L 1016.9999999999983 563.7857477535827L 1025.9999999999984 566.5723673457069L 1034.9999999999984 569.4075085237794L 1043.9999999999984 572.2628434943219L 1052.9999999999984 575.1098426941574L 1061.9999999999984 577.9200598483734L 1070.9999999999984 580.6654161960996L 1079.9999999999984 583.3184810442035L 1088.9999999999984 585.8527458457098L 1097.9999999999984 588.2428890644379L 1106.9999999999984 590.4650291794231L 1115.9999999999984 592.4969633011782L 1124.9999999999984 594.3183890156264L 1133.9999999999984 595.9111072391125L 1142.9999999999984 597.2592040576301L 1151.9999999999984 598.3492097333901L 1160.9999999999984 599.1702332899882L 1169.9999999999984 599.7140713314412L 1178.9999999999984 599.975290007808L 1187.9999999999984 599.9512793084216L 1196.9999999999984 599.6422791402533L 1205.9999999999984 599.0513769308419L 1214.9999999999984 598.1844767797372L 1223.9999999999984 597.0502404666902L 1232.9999999999984 595.6600009060119L 1241.9999999999984 594.0276489118407L 1250.9999999999984 592.1694944057185L 1259.9999999999984 590.1041034532465L 1268.9999999999986 587.8521127580938L 1277.9999999999986 585.4360234668776L 1286.9999999999986 582.8799763451426L 1295.9999999999984 580.2095105708124L 1304.9999999999984 577.4513085551656L 1313.9999999999984 574.6329293410021L 1322.9999999999984 571.7825332417974L 1331.9999999999984 568.9286004731592L 1340.9999999999982 566.099646587927L 1349.9999999999982 563.3239375581941L 1358.9999999999982 560.6292073510582L 1367.9999999999982 558.0423808199897L 1376.9999999999982 555.5893046805959L 1385.999999999998 553.2944892587823L 1394.999999999998 551.1808635916788L 1403.999999999998 549.269546328279L 1412.999999999998 547.5796347188815L 1421.999999999998 546.128013801677L 1430.999999999998 544.9291876930278L 1439.999999999998 543.9951346671326L 1448.999999999998 543.3351874730691L 1457.9999999999977 542.955940085051L 1466.999999999998 542.8611818176167L 1475.999999999998 543.0518594640515L 1484.9999999999977 543.526067836342L 1493.9999999999975 544.2790688011846L 1502.9999999999977 545.3033386218477L 1511.9999999999977 546.5886431328619L 1520.9999999999975 548.1221399964179L 1529.9999999999973 549.8885070187622L 1538.9999999999975 551.8700952444907L 1547.9999999999977 554.0471052990779L 1556.9999999999975 556.397785217682L 1565.9999999999975 558.8986477835881L 1574.9999999999975 561.5247052047129L 1583.9999999999975 564.2497187833634L 1592.9999999999975 567.0464610846317L 1601.9999999999973 569.8869879839234L 1610.9999999999973 572.7429178754145L 1619.9999999999975 575.5857152516738L 1628.9999999999973 578.3869758210218L 1637.999999999997 581.118710313823L 1646.9999999999973 583.753624142017L 1655.9999999999973 586.2653901176188L 1664.999999999997 588.6289115052799L 1673.9999999999968 590.8205727805711L 1682.999999999997 592.8184755884965L 1691.999999999997 594.6026575446182L 1700.9999999999968 596.1552916926026L 1709.9999999999968 597.460864625276L 1718.9999999999968 598.5063314894601L 1727.999999999997 599.281246325833L 1736.999999999997 599.7778664415029L 1745.9999999999968 599.9912297724344L 1754.9999999999968 599.9192044627537L 1763.999999999997 599.5625101655465L 1772.9999999999968 598.9247108523234L 1781.9999999999966 598.0121792029934L 1790.9999999999966 596.8340329321537L 1799.9999999999968 595.4020436878992" fill="none" stroke-width="0.5" stroke="#2a628f" class="cos" opacity="0.75"></path>
            <path d="M 0 800L 0 595.4020436878986L 8.999999999999968 596.8340329321533L 17.999999999999936 598.0121792029929L 26.999999999999904 598.9247108523231L 35.99999999999987 599.5625101655465L 44.999999999999844 599.9192044627537L 53.99999999999981 599.9912297724345L 62.99999999999978 599.777866441503L 71.99999999999974 599.2812463258333L 80.99999999999972 598.5063314894604L 89.99999999999969 597.4608646252766L 98.99999999999964 596.1552916926032L 107.99999999999962 594.6026575446189L 116.99999999999957 592.8184755884972L 125.99999999999956 590.820572780572L 134.99999999999952 588.6289115052808L 143.9999999999995 586.2653901176196L 152.99999999999946 583.7536241420179L 161.99999999999943 581.118710313824L 170.9999999999994 578.3869758210228L 179.99999999999937 575.5857152516749L 188.99999999999932 572.7429178754155L 197.9999999999993 569.8869879839245L 206.99999999999926 567.0464610846326L 215.99999999999923 564.2497187833643L 224.9999999999992 561.5247052047139L 233.99999999999915 558.898647783589L 242.99999999999912 556.3977852176829L 251.99999999999912 554.0471052990787L 260.9999999999991 551.8700952444915L 269.99999999999903 549.8885070187629L 278.999999999999 548.1221399964185L 287.999999999999 546.5886431328623L 296.999999999999 545.3033386218481L 305.9999999999989 544.279068801185L 314.99999999999886 543.5260678363422L 323.99999999999886 543.0518594640516L 332.9999999999988 542.8611818176167L 341.9999999999988 542.9559400850509L 350.99999999999875 543.335187473069L 359.99999999999875 543.9951346671322L 368.9999999999987 544.9291876930274L 377.99999999999864 546.1280138016764L 386.99999999999864 547.5796347188809L 395.9999999999986 549.2695463282784L 404.9999999999986 551.180863591678L 413.9999999999985 553.2944892587815L 422.99999999999847 555.589304680595L 431.99999999999847 558.0423808199888L 440.99999999999847 560.6292073510573L 449.9999999999984 563.323937558193L 458.9999999999984 566.0996465879259L 467.9999999999983 568.9286004731582L 476.99999999999835 571.7825332417964L 485.99999999999824 574.6329293410009L 494.99999999999824 577.4513085551646L 503.99999999999824 580.2095105708114L 512.9999999999982 582.8799763451416L 521.9999999999982 585.4360234668766L 530.9999999999981 587.8521127580929L 539.9999999999981 590.1041034532457L 548.9999999999981 592.1694944057178L 557.9999999999981 594.0276489118402L 566.9999999999981 595.6600009060113L 575.9999999999981 597.0502404666896L 584.9999999999981 598.1844767797369L 593.9999999999982 599.0513769308416L 602.9999999999982 599.6422791402532L 611.9999999999982 599.9512793084215L 620.9999999999982 599.975290007808L 629.9999999999982 599.7140713314413L 638.9999999999982 599.1702332899885L 647.9999999999982 598.3492097333904L 656.9999999999982 597.2592040576307L 665.9999999999982 595.911107239113L 674.9999999999982 594.318389015627L 683.9999999999982 592.4969633011789L 692.9999999999982 590.4650291794239L 701.9999999999982 588.2428890644389L 710.9999999999982 585.8527458457106L 719.9999999999983 583.3184810442046L 728.9999999999983 580.6654161961006L 737.9999999999984 577.9200598483744L 746.9999999999983 575.1098426941584L 755.9999999999983 572.2628434943231L 764.9999999999983 569.4075085237805L 773.9999999999982 566.5723673457079L 782.9999999999983 563.7857477535838L 791.9999999999983 561.0754927292385L 800.9999999999983 558.4686822449839L 809.9999999999984 555.9913626894821L 818.9999999999983 553.6682866208386L 827.9999999999983 551.5226654472243L 836.9999999999983 549.5759375061579L 845.9999999999983 547.8475538597238L 854.9999999999983 546.3547839459897L 863.9999999999984 545.1125430284892L 872.9999999999984 544.13324316784L 881.9999999999983 543.4266692045361L 890.9999999999983 542.9998809920564L 899.9999999999982 542.8571428571429L 908.9999999999984 542.9998809920563L 917.9999999999984 543.4266692045358L 926.9999999999982 544.1332431678397L 935.9999999999982 545.1125430284887L 944.9999999999983 546.3547839459891L 953.9999999999984 547.8475538597231L 962.9999999999983 549.5759375061572L 971.9999999999983 551.5226654472235L 980.9999999999983 553.6682866208378L 989.9999999999983 555.9913626894812L 998.9999999999983 558.468682244983L 1007.9999999999983 561.0754927292375L 1016.9999999999983 563.7857477535827L 1025.9999999999984 566.5723673457069L 1034.9999999999984 569.4075085237794L 1043.9999999999984 572.2628434943219L 1052.9999999999984 575.1098426941574L 1061.9999999999984 577.9200598483734L 1070.9999999999984 580.6654161960996L 1079.9999999999984 583.3184810442035L 1088.9999999999984 585.8527458457098L 1097.9999999999984 588.2428890644379L 1106.9999999999984 590.4650291794231L 1115.9999999999984 592.4969633011782L 1124.9999999999984 594.3183890156264L 1133.9999999999984 595.9111072391125L 1142.9999999999984 597.2592040576301L 1151.9999999999984 598.3492097333901L 1160.9999999999984 599.1702332899882L 1169.9999999999984 599.7140713314412L 1178.9999999999984 599.975290007808L 1187.9999999999984 599.9512793084216L 1196.9999999999984 599.6422791402533L 1205.9999999999984 599.0513769308419L 1214.9999999999984 598.1844767797372L 1223.9999999999984 597.0502404666902L 1232.9999999999984 595.6600009060119L 1241.9999999999984 594.0276489118407L 1250.9999999999984 592.1694944057185L 1259.9999999999984 590.1041034532465L 1268.9999999999986 587.8521127580938L 1277.9999999999986 585.4360234668776L 1286.9999999999986 582.8799763451426L 1295.9999999999984 580.2095105708124L 1304.9999999999984 577.4513085551656L 1313.9999999999984 574.6329293410021L 1322.9999999999984 571.7825332417974L 1331.9999999999984 568.9286004731592L 1340.9999999999982 566.099646587927L 1349.9999999999982 563.3239375581941L 1358.9999999999982 560.6292073510582L 1367.9999999999982 558.0423808199897L 1376.9999999999982 555.5893046805959L 1385.999999999998 553.2944892587823L 1394.999999999998 551.1808635916788L 1403.999999999998 549.269546328279L 1412.999999999998 547.5796347188815L 1421.999999999998 546.128013801677L 1430.999999999998 544.9291876930278L 1439.999999999998 543.9951346671326L 1448.999999999998 543.3351874730691L 1457.9999999999977 542.955940085051L 1466.999999999998 542.8611818176167L 1475.999999999998 543.0518594640515L 1484.9999999999977 543.526067836342L 1493.9999999999975 544.2790688011846L 1502.9999999999977 545.3033386218477L 1511.9999999999977 546.5886431328619L 1520.9999999999975 548.1221399964179L 1529.9999999999973 549.8885070187622L 1538.9999999999975 551.8700952444907L 1547.9999999999977 554.0471052990779L 1556.9999999999975 556.397785217682L 1565.9999999999975 558.8986477835881L 1574.9999999999975 561.5247052047129L 1583.9999999999975 564.2497187833634L 1592.9999999999975 567.0464610846317L 1601.9999999999973 569.8869879839234L 1610.9999999999973 572.7429178754145L 1619.9999999999975 575.5857152516738L 1628.9999999999973 578.3869758210218L 1637.999999999997 581.118710313823L 1646.9999999999973 583.753624142017L 1655.9999999999973 586.2653901176188L 1664.999999999997 588.6289115052799L 1673.9999999999968 590.8205727805711L 1682.999999999997 592.8184755884965L 1691.999999999997 594.6026575446182L 1700.9999999999968 596.1552916926026L 1709.9999999999968 597.460864625276L 1718.9999999999968 598.5063314894601L 1727.999999999997 599.281246325833L 1736.999999999997 599.7778664415029L 1745.9999999999968 599.9912297724344L 1754.9999999999968 599.9192044627537L 1763.999999999997 599.5625101655465L 1772.9999999999968 598.9247108523234L 1781.9999999999966 598.0121792029934L 1790.9999999999966 596.8340329321537L 1799.9999999999968 595.4020436878992L 1800 800 Z" fill="#2a628f" opacity="0.75" stroke="none" class="cos"></path>
        </g>
        <g>
            <path d="M0 0 " fill="none" stroke-width="0.5" stroke="#000000" class="xs" opacity="0.75"></path>
            <path d="M 0 800L 1800 800 Z" fill="#000000" opacity="0.75" stroke="none" class="xs"></path>
        </g>
    </g>
</svg>