<svg xmlns="http://www.w3.org/2000/svg" version="1.1" id="Layer_1" x="0" y="0" width="120" height="60">
    <style type="text/css" id="style3892">.st0,.st1{fill:#0080ff}.st1{fill-rule:evenodd;clip-rule:evenodd}</style>
    <g id="XMLID_690_" transform="translate(-11.126 2.51) scale(.20412)">
        <g id="XMLID_691_">
            <g id="g3897">
                <g id="XMLID_44_">
                    <g id="XMLID_48_">
                        <path style="fill:#0080ff" d="M177 221.5v-34.2c36.2 0 64.3-35.9 50.4-74-5.1-14-16.4-25.3-30.5-30.4-38.1-13.8-74 14.2-74 50.4H88.8c0-57.7 55.8-102.7 116.3-83.8 26.4 8.3 47.5 29.3 55.7 55.7 18.9 60.5-26.1 116.3-83.8 116.3z" class="st0" id="XMLID_49_" />
                    </g>
                    <path style="clip-rule:evenodd;fill:#0080ff;fill-rule:evenodd" class="st1" id="XMLID_47_" d="M177.1 153.4v34.1H143v-34.1z" />
                    <path style="clip-rule:evenodd;fill:#0080ff;fill-rule:evenodd" class="st1" id="XMLID_46_" d="M143 187.5v26.1h-26.1v-26.1z" />
                    <path style="clip-rule:evenodd;fill:#0080ff;fill-rule:evenodd" d="M116.9 187.5H95v-21.9h21.9v21.9z" class="st1" id="XMLID_45_" />
                </g>
            </g>
        </g>
    </g>
    <g id="g4226" transform="translate(-9.326 55.297) scale(.9865)">
        <path style="fill:#0080ff" d="M71.04-41.997c-1.602-1.128-3.64-1.674-5.97-1.674h-5.096v16.198h5.132c2.33 0 4.368-.583 5.97-1.784.874-.619 1.565-1.492 2.075-2.584.473-1.092.728-2.403.728-3.822 0-1.42-.255-2.694-.728-3.786-.51-1.092-1.201-1.966-2.111-2.548zm-8.081 1.056h1.601c1.784 0 3.24.364 4.368 1.055 1.238.765 1.857 2.184 1.857 4.223 0 2.11-.619 3.603-1.857 4.404-1.055.692-2.511 1.056-4.331 1.056h-1.638v-10.738z" class="st0" id="XMLID_677_" />
        <path style="fill:#0080ff" d="M77.41-43.89c-.51 0-.91.182-1.274.51a1.67 1.67 0 0 0-.51 1.237c0 .51.182.91.51 1.274.327.328.764.51 1.274.51.473 0 .91-.182 1.274-.51.327-.327.51-.764.51-1.274s-.183-.91-.51-1.237a1.884 1.884 0 0 0-1.274-.51z" class="st0" id="XMLID_676_" />
        <path style="fill:#0080ff" class="st0" id="XMLID_675_" d="M75.954-38.903h2.876v11.43h-2.876z" />
        <path style="fill:#0080ff" d="M89.276-37.957c-.873-.764-1.82-1.237-2.876-1.237-1.601 0-2.912.546-3.93 1.638-1.02 1.055-1.566 2.439-1.566 4.113 0 1.602.51 2.985 1.529 4.077 1.02 1.055 2.366 1.601 3.931 1.601 1.092 0 2.075-.29 2.84-.91v.255c0 .947-.255 1.675-.765 2.184-.51.51-1.201.765-2.075.765-1.31 0-2.148-.51-3.167-1.893l-1.965 1.893.036.072c.437.583 1.056 1.165 1.93 1.711.836.546 1.928.837 3.202.837 1.711 0 3.095-.51 4.114-1.565 1.019-1.055 1.529-2.439 1.529-4.15v-10.373h-2.84v.982zm-.764 6.77c-.51.583-1.165.838-1.966.838-.837 0-1.456-.291-1.966-.837-.51-.583-.728-1.31-.728-2.22 0-.947.255-1.675.728-2.257.474-.583 1.165-.838 1.966-.838.837 0 1.456.292 1.966.838.51.582.764 1.346.764 2.256 0 .91-.255 1.638-.764 2.22z" class="st0" id="XMLID_670_" />
        <path style="fill:#0080ff" class="st0" id="XMLID_668_" d="M94.554-38.903h2.876v11.43h-2.876z" />
        <path style="fill:#0080ff" d="M96.01-43.89c-.51 0-.91.182-1.274.51-.327.327-.51.728-.51 1.237 0 .51.183.91.51 1.274.328.328.765.51 1.274.51.473 0 .91-.182 1.274-.51.328-.327.51-.764.51-1.274s-.182-.91-.51-1.237c-.364-.328-.764-.51-1.274-.51z" class="st0" id="XMLID_660_" />
        <path style="fill:#0080ff" d="M103.727-41.997h-2.84v3.094H99.25v2.62h1.638v4.733c0 1.492.291 2.548.873 3.167.583.618 1.638.91 3.094.91.474 0 .947 0 1.384-.037h.145v-2.62l-.983.036c-.691 0-1.128-.11-1.346-.364-.219-.255-.328-.765-.328-1.529v-4.332h2.694v-2.62h-2.694v-3.058z" class="st0" id="XMLID_652_" />
        <path style="fill:#0080ff" class="st0" id="XMLID_642_" d="M119.889-43.708h2.876v16.235h-2.876z" />
        <path style="fill:#0080ff" d="M116.285-38.03c-.873-.727-2.075-1.128-3.567-1.128-.947 0-1.857.219-2.657.619a4.71 4.71 0 0 0-1.966 1.82l.036.036 1.857 1.748c.764-1.202 1.601-1.638 2.73-1.638.619 0 1.092.145 1.492.473.364.327.583.728.583 1.237v.546a7.272 7.272 0 0 0-2.111-.327c-1.42 0-2.585.327-3.459.983-.873.655-1.31 1.638-1.31 2.875 0 1.092.364 1.93 1.128 2.585.765.618 1.675.946 2.767.946 1.092 0 2.111-.437 3.058-1.201v.946h2.839v-7.353c-.11-1.346-.546-2.438-1.42-3.166zm-5.096 6.189c.328-.219.8-.328 1.383-.328.692 0 1.42.146 2.184.4v1.129c-.618.582-1.456.873-2.475.873-.51 0-.874-.109-1.165-.327-.255-.219-.4-.473-.4-.837 0-.4.145-.692.473-.91z" class="st0" id="XMLID_320_" />
    </g>
    <g id="g4237" transform="translate(-74.59 74.815) scale(.9865)">
        <path style="fill:#0080ff" d="M151.812-31.55c-.51.582-1.056 1.092-1.456 1.347-.4.254-.91.4-1.493.4-.837 0-1.528-.291-2.074-.946-.546-.62-.838-1.456-.838-2.403 0-.983.292-1.783.838-2.402.546-.619 1.237-.947 2.074-.947.91 0 1.893.583 2.73 1.566l1.893-1.82c-1.237-1.602-2.803-2.366-4.695-2.366-1.566 0-2.949.582-4.077 1.71-1.129 1.129-1.675 2.548-1.675 4.26 0 1.71.583 3.13 1.675 4.258 1.128 1.128 2.475 1.71 4.077 1.71 2.074 0 3.749-.91 4.914-2.547l-1.893-1.82z" class="st0" id="XMLID_448_" />
        <path style="fill:#0080ff" d="M163.642-37.301c-.4-.583-.947-1.02-1.638-1.347a5.506 5.506 0 0 0-2.366-.51c-1.602 0-2.912.583-3.895 1.747-.946 1.165-1.456 2.585-1.456 4.296 0 1.747.546 3.166 1.565 4.258 1.056 1.092 2.439 1.638 4.15 1.638 1.93 0 3.53-.8 4.732-2.33l.073-.072-1.893-1.82c-.182.218-.437.437-.655.655-.292.255-.546.473-.838.619-.436.218-.91.328-1.456.328-.8 0-1.456-.219-1.965-.692-.473-.437-.765-1.02-.837-1.747h7.607l.037-1.056a8.03 8.03 0 0 0-.291-2.111 6.18 6.18 0 0 0-.874-1.856zm-6.297 2.693c.145-.546.4-1.019.764-1.347.4-.4.91-.582 1.492-.582.692 0 1.238.182 1.602.582.328.364.546.801.582 1.347h-4.44z" class="st0" id="XMLID_445_" />
        <path style="fill:#0080ff" d="M174.671-38.03c-.873-.727-2.075-1.128-3.567-1.128a5.95 5.95 0 0 0-2.657.619 4.71 4.71 0 0 0-1.966 1.82l.037.036 1.856 1.748c.764-1.202 1.602-1.638 2.73-1.638.619 0 1.092.145 1.492.473.364.327.583.728.583 1.237v.546a7.272 7.272 0 0 0-2.111-.327c-1.42 0-2.585.327-3.458.983-.874.655-1.31 1.638-1.31 2.875 0 1.092.363 1.93 1.128 2.585.764.618 1.674.946 2.766.946s2.111-.437 3.058-1.201v.946h2.839v-7.353c-.11-1.346-.546-2.438-1.42-3.166zm-5.096 6.189c.328-.219.8-.328 1.383-.328.692 0 1.42.146 2.184.4v1.129c-.618.582-1.456.873-2.475.873-.51 0-.873-.109-1.165-.327-.254-.219-.4-.473-.4-.837 0-.4.146-.692.473-.91z" class="st0" id="XMLID_442_" />
        <path style="fill:#0080ff" d="M187.047-37.811c-.8-.91-1.929-1.347-3.349-1.347-1.128 0-2.074.328-2.766.983v-.692h-2.803v11.394h2.876v-6.298c0-.873.218-1.565.619-2.038.4-.473.946-.728 1.71-.728.656 0 1.129.218 1.493.655.364.437.546 1.056.546 1.784v6.625h2.875v-6.625c0-1.565-.4-2.84-1.2-3.713z" class="st0" id="XMLID_393_" />
        <path style="fill:#0080ff" d="M133.211-27.219a8.373 8.373 0 0 1 0-16.744 8.373 8.373 0 0 1 0 16.744zm0-13.795a5.437 5.437 0 0 0-5.423 5.423 5.437 5.437 0 0 0 5.423 5.424 5.437 5.437 0 0 0 5.424-5.424 5.437 5.437 0 0 0-5.424-5.423z" class="st0" id="XMLID_235_" />
    </g>
</svg>